<?xml version="1.0" encoding="iso-8859-1"?>
<!-- Uploaded to: SVG Repo, www.svgrepo.com, Generator: SVG Repo Mixer Tools -->
<svg fill="#000000" version="1.1" id="Layer_1" xmlns="http://www.w3.org/2000/svg" xmlns:xlink="http://www.w3.org/1999/xlink" 
	 viewBox="0 0 512 512" xml:space="preserve">
<g>
	<g>
		<path d="M442.811,470.487h-7.418c0.324-2.261,0.5-4.569,0.5-6.919c0-21.938-14.591-40.459-34.595-46.415v-71.207h-41.513v-83.027
			h41.513v-41.514h-41.513v-83.027h41.513V55.351h-12.991V41.821h-24.755V0.307H348.56v55.044h-10.839V41.821h-23.909v-8.61h19.834
			V21.064h-19.834v-7.687h23.217V0.307h-38.208v55.044h-24.984V13.377h15.684V0.307h-46.434v13.07h15.76v41.974H256h-46.203h-37.823
			V0.307h-14.991V20.45h-18.296V0.307h-14.993v55.044h-12.991v83.027h41.514v83.027h-41.514v41.514h41.514v83.027h-41.514v71.207
			c-20.004,5.956-34.595,24.476-34.595,46.415c0,2.35,0.176,4.658,0.5,6.919h-7.418c-11.463,0-20.757,9.293-20.757,20.757
			c0,11.463,9.294,20.757,20.757,20.757h103.784v-69.189h-27.676l48.432-55.351H318.27l48.432,55.351h-27.676V512h103.784
			c11.463,0,20.757-9.293,20.757-20.757C463.568,479.78,454.274,470.487,442.811,470.487z M156.982,55.351h-18.296V33.518h18.296
			V55.351z M235.243,345.946H193.73v-83.027h41.513V345.946z M235.243,221.405H193.73v-83.027h41.513V221.405z M318.27,345.946
			h-41.513v-83.027h41.513V345.946z M318.27,221.405h-41.513v-83.027h41.513V221.405z"/>
	</g>
</g>
<g>
	<g>
		<rect x="214.487" y="442.811" width="83.027" height="69.189"/>
	</g>
</g>
<g>
	<g>
		<path d="M235.667,17.603c-1.308-3.331-3.166-6.305-5.574-8.917c-2.409-2.614-5.304-4.715-8.687-6.303S214.255,0,210.104,0
			c-4.049,0-7.777,0.757-11.185,2.268c-3.41,1.513-6.356,3.537-8.841,6.075c-2.487,2.536-4.42,5.47-5.804,8.801
			c-1.384,3.332-2.076,6.792-2.076,10.378c0,3.537,0.666,6.97,1.998,10.301c1.333,3.332,3.202,6.293,5.613,8.88
			c2.409,2.588,5.304,4.677,8.687,6.264c3.382,1.589,7.15,2.384,11.301,2.384c4.048,0,7.777-0.769,11.185-2.307
			c3.408-1.537,6.342-3.574,8.802-6.111c2.46-2.534,4.382-5.459,5.766-8.765c1.384-3.307,2.076-6.751,2.076-10.341
			C237.628,24.344,236.973,20.937,235.667,17.603z M221.674,32.825c-0.489,1.742-1.23,3.293-2.229,4.65
			c-0.999,1.362-2.294,2.463-3.883,3.31c-1.589,0.848-3.459,1.268-5.611,1.268c-2.153,0-4.012-0.41-5.574-1.23
			c-1.564-0.819-2.856-1.896-3.883-3.228c-1.027-1.333-1.795-2.856-2.307-4.576c-0.513-1.716-0.769-3.497-0.769-5.341
			c0-1.795,0.242-3.548,0.731-5.268c0.487-1.714,1.241-3.253,2.268-4.612c1.024-1.356,2.318-2.448,3.883-3.267
			c1.562-0.819,3.421-1.23,5.573-1.23c2.102,0,3.934,0.399,5.498,1.191c1.562,0.796,2.869,1.846,3.92,3.152
			c1.05,1.305,1.832,2.817,2.346,4.535c0.512,1.719,0.769,3.498,0.769,5.343C222.404,29.315,222.161,31.081,221.674,32.825z"/>
	</g>
</g>
</svg>